<svg xmlns="http://www.w3.org/2000/svg" viewBox="0 0 428.61 143.93"><defs><style>.cls-1{fill:#ffc713;}.cls-2{fill:#010101;}</style></defs><g id="Layer_2" data-name="Layer 2"><g id="Layer_1-2" data-name="Layer 1"><path class="cls-1" d="M329.72,12.53l19.84-2.24c2.18,1.15,2.59,3.19,2.19,5.27-.68,3.51-1.55,7-2.56,10.42-9,30.78-18.12,61.55-27.25,92.51.91,1.06,2.05.86,3.64.23,5-2,10-3.69,15.08-5.27a3.77,3.77,0,0,1,3.25.84,13.77,13.77,0,0,0,9,4.58c10.63,1.07,19.78-2.46,27.51-9.64a65.11,65.11,0,0,0,16.86-25.64c3.76-10.21,5.63-20.6,3.26-31.42A16,16,0,0,0,392.5,41a18.47,18.47,0,0,0-22.39,3.67c-3.45,3.78-6.31,8.1-9.24,11.92a5.58,5.58,0,0,1,.15-.85c2.71-9.41,5.4-18.83,8.14-28.24,1.77-6.1,3.6-12.18,5.41-18.27,10.43-.25,20.86-.55,31.29-.71A64.79,64.79,0,0,1,414.2,9,4.92,4.92,0,0,1,419,13.44c2.46,14.67,5,29.33,7.24,44,.8,5.34.71,10.83,1,16.25.49,10.82.88,21.65,1.41,32.47.26,5.38-1.93,8.39-7.38,8.9-7.61.72-15.26.94-22.86,1.63-11.05,1-22.07,2.19-33.09,3.36-12.71,1.35-25.39,2.86-38.1,4.13q-16.77,1.68-33.58,3c-11,.87-22,1.78-33,2.28-23.56,1.07-47.15,1.69-70.71,2.89-21.49,1.09-43,2.71-64.44,4.08-14.74.95-29.5,1.64-44.21,2.86-12.58,1-25.11,2.7-37.67,4-8.68.94-17.31,1-25.79-1.49a8.76,8.76,0,0,1-6.84-7.64C7.74,114.9,4.49,95.6,1,76.35-.69,67.44-.38,59,3.22,50.53c2.16-5.07,3.2-10.61,4.65-16a5.82,5.82,0,0,1,3.93-4.39A27.34,27.34,0,0,1,18.69,29c27.4-.84,54.8-1.69,82.2-2.33,12.56-.3,25.14.1,37.7-.25,26.15-.75,52.31-1.57,78.44-2.79,13-.61,25.9-2.15,38.85-3.28,10.47-.91,20.93-1.81,31.39-2.78,5.41-.5,10.81-1.16,16.21-1.74,0,6.51,3.47,9.06,8.08,9.65C320.43,26.66,328.94,22.2,329.72,12.53ZM210.1,117.19c6.42,0,12.37-.1,18.31,0,2,.05,2.74-.5,3.24-2.44,2.83-10.83,5.6-21.68,8.83-32.38,3.07-10.16,6.68-20.17,12.73-29.05,3.21-4.7,6.87-9,12.59-10.84a21,21,0,0,1,3.83-.53l.09.6c-.54.22-1.09.41-1.61.66-5.63,2.73-9.16,7-9.62,13.41-.4,5.69,3.13,9.36,8.85,9.37,7.6,0,13.82-6.24,14.16-14.25.27-6.29-2.36-10.94-7.35-12.36a17.71,17.71,0,0,0-16.55,3.46c-4.91,3.91-7.58,9.42-10.24,14.92-.28.58-.59,1.14-.89,1.71a27.55,27.55,0,0,1,.38-5.15A37.15,37.15,0,0,0,247,49.1c-.2-4.89-2.7-8.55-6.53-9.75-6.82-2.14-15.76.57-20.42,6.07-4.79,5.66-6,12.86-8.77,19.44,2,.68,2.88.24,3.56-1.58,1.56-4.17,3.3-8.28,5.17-12.33a8,8,0,0,1,5.36-4.86c2.08-.49,3.4.41,3.41,2.52a15.52,15.52,0,0,1-.59,4.11q-7,25-14.07,50.05C212.84,107.48,211.51,112.18,210.1,117.19ZM199.23,44.46l-2,.83c-5.53,2.34-9.45,6.22-10.85,12.14-.8,3.42-.74,6.93,2.14,9.61s6,2.75,9.48,1.71a15.14,15.14,0,0,0,9.17-8c4.47-8.55,1.21-17.15-7.82-20.55-6.16-2.32-12.45-1.64-18.65-.18-11.26,2.67-19.71,9.61-26.54,18.5A65,65,0,0,0,140.62,95.2c-.77,13.52,7.19,22.91,20.71,23.83,11.9.82,21.63-3.64,29.53-12.34,2-2.24,3.78-4.72,5.82-7.28l-3.12-1.18c-.66.89-1.21,1.67-1.8,2.41-3.32,4.19-7,8-12.3,9.6-8,2.48-15.43.18-16.16-9.38a76.08,76.08,0,0,1,.45-15.75c1.71-12.9,5.9-24.92,14.26-35.16,3.51-4.31,7.66-7.75,13.51-8.27A8.7,8.7,0,0,1,199.23,44.46ZM318.77,93.69c-3-.57-3-.57-3.8,1.48a73,73,0,0,1-3.24,8.14,41.34,41.34,0,0,1-5.24,7.45c-1,1.18-3,1.8-4.37.57-.82-.76-1-2.41-1.1-3.7a6.34,6.34,0,0,1,.58-2.54c4-11.77,8.13-23.49,12-35.29a163.58,163.58,0,0,0,5-18.1,10.52,10.52,0,0,0-7.3-12.19c-10.08-2.85-20.45,1.67-24.69,11.26-1.63,3.67-2.94,7.48-4.37,11.23-.35.92-.62,1.87-.94,2.84,1.79.72,2.71.27,3.25-1.34a39.53,39.53,0,0,1,2.17-5.5,86.69,86.69,0,0,1,5.62-10.07c1.4-2,4.26-2.5,5.47-1.53,1.79,1.44,1.2,3.3.6,5.07-4.25,12.6-8.61,25.16-12.74,37.81a108.14,108.14,0,0,0-4.24,15.83c-1,6.26,1.33,12.56,9.91,13.84,7,1,16-1,20.05-8.38C314.36,105.24,316.33,99.4,318.77,93.69Z"/><path class="cls-2" d="M374.57,9.18c-1.81,6.09-3.64,12.17-5.41,18.27-2.74,9.41-5.43,18.83-8.14,28.24a5.58,5.58,0,0,0-.15.85c2.93-3.82,5.79-8.14,9.24-11.92A18.47,18.47,0,0,1,392.5,41a16,16,0,0,1,8.05,11.22c2.37,10.82.5,21.21-3.26,31.42a65.11,65.11,0,0,1-16.86,25.64c-7.73,7.18-16.88,10.71-27.51,9.64a13.77,13.77,0,0,1-9-4.58,3.77,3.77,0,0,0-3.25-.84c-5.08,1.58-10.12,3.32-15.08,5.27-1.59.63-2.73.83-3.64-.23,9.13-31,18.22-61.73,27.25-92.51,1-3.43,1.88-6.91,2.56-10.42.4-2.08,0-4.12-2.19-5.27l-7.22-1.84c.15-1.31.13-2.71,2.29-2.76C355.28,5.41,365.73,4,375.78.2a8.15,8.15,0,0,1,1.13-.2C376.09,3.2,375.33,6.19,374.57,9.18Zm5.23,48.69a48,48,0,0,0,0-5.5c-.26-2.2-.78-4.55-3.11-5.45s-4.33,0-6.07,1.6a19.83,19.83,0,0,0-2.37,2.3A74.13,74.13,0,0,0,355.55,75c-3.55,11.53-6.72,23.18-10.18,34.74a2.63,2.63,0,0,0,1.3,3.45c3.79,2.45,8.21,2,12-1.09a34,34,0,0,0,6.93-7.59C374.84,90.37,379.12,74.64,379.8,57.87Z"/><path class="cls-2" d="M329.72,12.53c-.78,9.67-9.29,14.13-18.16,13-4.61-.59-8.12-3.14-8.08-9.65.72-2.19,1-4.63,2.22-6.52,3.9-6.22,13.84-8.26,20.17-4.49C328.84,6.63,329.46,9.46,329.72,12.53Z"/><path class="cls-2" d="M210.1,117.19c1.41-5,2.74-9.71,4.06-14.42q7.05-25,14.07-50a15.52,15.52,0,0,0,.59-4.11c0-2.11-1.33-3-3.41-2.52A8,8,0,0,0,220.05,51c-1.87,4-3.61,8.16-5.17,12.33-.68,1.82-1.59,2.26-3.56,1.58,2.79-6.58,4-13.78,8.77-19.44,4.66-5.5,13.6-8.21,20.42-6.07,3.83,1.2,6.33,4.86,6.53,9.75a37.15,37.15,0,0,1-.19,5.27,27.55,27.55,0,0,0-.38,5.15c.3-.57.61-1.13.89-1.71,2.66-5.5,5.33-11,10.24-14.92a17.71,17.71,0,0,1,16.55-3.46c5,1.42,7.62,6.07,7.35,12.36-.34,8-6.56,14.27-14.16,14.25-5.72,0-9.25-3.68-8.85-9.37.46-6.4,4-10.68,9.62-13.41.52-.25,1.07-.44,1.61-.66l-.09-.6a21,21,0,0,0-3.83.53c-5.72,1.81-9.38,6.14-12.59,10.84-6.05,8.88-9.66,18.89-12.73,29.05-3.23,10.7-6,21.55-8.83,32.38-.5,1.94-1.27,2.49-3.24,2.44C222.47,117.09,216.52,117.19,210.1,117.19Z"/><path class="cls-2" d="M199.23,44.46a8.7,8.7,0,0,0-7.71-2.78c-5.85.52-10,4-13.51,8.27-8.36,10.24-12.55,22.26-14.26,35.16a76.08,76.08,0,0,0-.45,15.75c.73,9.56,8.2,11.86,16.16,9.38,5.27-1.63,9-5.41,12.3-9.6.59-.74,1.14-1.52,1.8-2.41l3.12,1.18c-2,2.56-3.79,5-5.82,7.28-7.9,8.7-17.63,13.16-29.53,12.34-13.52-.92-21.48-10.31-20.71-23.83a65,65,0,0,1,13.57-36.72C161,49.59,169.47,42.65,180.73,40c6.2-1.46,12.49-2.14,18.65.18,9,3.4,12.29,12,7.82,20.55a15.14,15.14,0,0,1-9.17,8c-3.43,1-6.72.86-9.48-1.71s-2.94-6.19-2.14-9.61c1.4-5.92,5.32-9.8,10.85-12.14Z"/><path class="cls-2" d="M318.77,93.69c-2.44,5.71-4.41,11.55-7.33,16.88-4,7.35-13.09,9.42-20.05,8.38-8.58-1.28-10.95-7.58-9.91-13.84a108.14,108.14,0,0,1,4.24-15.83c4.13-12.65,8.49-25.21,12.74-37.81.6-1.77,1.19-3.63-.6-5.07-1.21-1-4.07-.49-5.47,1.53A86.69,86.69,0,0,0,286.77,58a39.53,39.53,0,0,0-2.17,5.5c-.54,1.61-1.46,2.06-3.25,1.34.32-1,.59-1.92.94-2.84,1.43-3.75,2.74-7.56,4.37-11.23,4.24-9.59,14.61-14.11,24.69-11.26a10.52,10.52,0,0,1,7.3,12.19,163.58,163.58,0,0,1-5,18.1c-3.88,11.8-8,23.52-12,35.29a6.34,6.34,0,0,0-.58,2.54c.14,1.29.28,2.94,1.1,3.7,1.33,1.23,3.34.61,4.37-.57a41.34,41.34,0,0,0,5.24-7.45A73,73,0,0,0,315,95.17C315.77,93.12,315.78,93.12,318.77,93.69Z"/><path class="cls-1" d="M379.8,57.87c-.68,16.77-5,32.5-14.18,46.65a34,34,0,0,1-6.93,7.59c-3.81,3.12-8.23,3.54-12,1.09a2.63,2.63,0,0,1-1.3-3.45C348.83,98.19,352,86.54,355.55,75a74.13,74.13,0,0,1,12.66-24.19,19.83,19.83,0,0,1,2.37-2.3c1.74-1.58,3.83-2.45,6.07-1.6s2.85,3.25,3.11,5.45A48,48,0,0,1,379.8,57.87Z"/></g></g></svg>